<svg xmlns="http://www.w3.org/2000/svg" xmlns:xlink="http://www.w3.org/1999/xlink" width="1080" zoomAndPan="magnify" viewBox="0 0 810 809.999993" height="1080" preserveAspectRatio="xMidYMid meet" version="1.0"><path fill="#ffffff" d="M 533.289062 398.90625 C 532.480469 400.753906 531.613281 402.574219 530.683594 404.375 C 523.78125 417.8125 513.066406 431.328125 496.917969 443.820312 C 486.800781 451.652344 475.765625 458.0625 464.105469 462.96875 C 485.835938 443.019531 486.125 414.789062 486.125 414.789062 C 486.125 414.789062 481.480469 436.886719 468.875 436.71875 C 456.257812 436.554688 463.707031 425.382812 463.707031 425.382812 C 503.398438 380.984375 467.554688 350.953125 466.816406 350.351562 C 480.296875 372.664062 470.414062 399.195312 451.207031 394.714844 C 431.988281 390.230469 439.902344 356.488281 440.378906 324.164062 C 440.851562 291.847656 418.558594 281.140625 418.558594 281.140625 C 426.203125 294.1875 424.769531 308.527344 422.007812 318.65625 C 419.890625 326.398438 409.773438 328.53125 404.957031 322.117188 C 394.996094 308.863281 396.308594 289.484375 404.632812 270.636719 C 415.171875 246.792969 407.066406 230.199219 406.695312 229.484375 C 406.820312 230.222656 409.132812 245.855469 383.46875 264.203125 C 357.179688 283 358.597656 314.375 365.40625 329.222656 C 372.214844 344.0625 369.167969 380.1875 342.472656 368.191406 C 316.257812 356.410156 332.691406 316.789062 333.28125 315.390625 C 279.679688 418.34375 322.011719 457.796875 356.933594 472.722656 C 318.46875 465.191406 236.410156 431.347656 275.539062 279.320312 C 275.539062 279.320312 276.363281 328.003906 303.59375 333.78125 C 330.824219 339.550781 276.644531 204.242188 335.492188 179.480469 C 335.066406 180.273438 313.207031 220.886719 340.453125 236.679688 C 367.953125 252.636719 334.957031 130.535156 411.398438 81.023438 C 410.664062 82.105469 378.144531 129.734375 403.164062 158.015625 C 428.464844 186.628906 435.066406 197.074219 448.269531 232.28125 C 461.472656 267.496094 468.621094 231.730469 464.769531 209.726562 C 460.988281 188.035156 479.09375 166.34375 479.617188 165.742188 C 479.269531 166.878906 466.886719 208.582031 499.980469 244.933594 C 507.371094 253.054688 511.6875 263.140625 511.316406 274.199219 C 510.96875 284.464844 507.25 294.285156 503.40625 303.664062 C 499.273438 313.753906 494.445312 323.777344 492.675781 334.625 C 491.355469 342.722656 491.152344 354.589844 498.472656 360.101562 C 504.300781 364.480469 511.90625 362.953125 517.558594 359.078125 C 524.488281 354.34375 529.171875 346.773438 531.5625 338.722656 C 533.953125 330.664062 534.199219 322.117188 533.574219 313.730469 C 544.539062 340.65625 545.09375 372.171875 533.289062 398.90625 " fill-opacity="1" fill-rule="nonzero"/><path fill="#ffffff" d="M 634.726562 761.148438 C 631.3125 766.34375 625.628906 769.167969 619.84375 769.167969 C 616.492188 769.167969 613.097656 768.222656 610.085938 766.246094 C 601.882812 760.847656 599.605469 749.816406 604.996094 741.605469 C 608.421875 736.410156 614.101562 733.585938 619.878906 733.585938 C 623.234375 733.585938 626.621094 734.53125 629.632812 736.511719 C 637.84375 741.902344 640.117188 752.933594 634.726562 761.148438 Z M 634.320312 727.125 L 476.902344 633.472656 C 473.515625 631.242188 469.703125 630.171875 465.929688 630.171875 C 464.558594 630.171875 463.195312 630.3125 461.867188 630.59375 C 459.632812 631.058594 457.5 631.910156 455.539062 633.105469 L 412.164062 604.597656 L 396.617188 594.382812 L 290.933594 524.921875 C 285.246094 521.179688 280.429688 516.265625 276.820312 510.488281 L 269.96875 499.535156 C 263.097656 488.53125 259.90625 475.746094 260.089844 462.789062 C 260.25 451.109375 254.625 439.605469 244.15625 432.71875 L 45.265625 324.394531 L 62.695312 346.398438 L 183.195312 425.605469 C 198.386719 435.582031 202.933594 456.355469 192.660156 471.351562 C 186.398438 480.484375 176.261719 485.425781 165.914062 485.425781 C 159.804688 485.425781 153.628906 483.703125 148.140625 480.105469 L 27.101562 400.542969 L -0.0078125 393.273438 L 178.328125 532.882812 C 184.304688 536.808594 191.039062 538.695312 197.703125 538.695312 C 202.789062 538.695312 207.828125 537.601562 212.453125 535.484375 C 221.4375 531.386719 231.121094 529.128906 240.886719 529.128906 C 244.011719 529.128906 247.136719 529.355469 250.261719 529.832031 L 262.058594 531.613281 C 268.789062 532.644531 275.210938 535.113281 280.910156 538.859375 L 381.179688 604.761719 L 396.722656 614.972656 L 446.113281 647.4375 C 445.085938 654.855469 448.257812 662.53125 454.925781 666.917969 L 603.332031 774.265625 C 608.34375 777.902344 614.128906 779.636719 619.851562 779.636719 C 629.03125 779.636719 638.046875 775.1875 643.484375 766.90625 C 652.332031 753.460938 648.160156 735.34375 634.320312 727.125 " fill-opacity="1" fill-rule="nonzero"/><path fill="#ffffff" d="M 756.796875 455.664062 C 756.023438 456.1875 755.199219 456.65625 754.335938 457.070312 L 665.421875 499.039062 C 659.433594 501.871094 652.554688 500.003906 649.863281 494.804688 C 647.164062 489.597656 649.582031 482.914062 655.359375 479.644531 L 740.886719 431.136719 C 749.078125 426.5 759.101562 428.777344 762.933594 436.152344 C 766.367188 442.785156 763.558594 451.125 756.796875 455.664062 Z M 621.617188 453.507812 C 618.347656 448.636719 620 441.71875 625.363281 437.8125 L 704.859375 379.960938 C 712.472656 374.429688 722.6875 375.558594 727.335938 382.449219 C 731.847656 389.175781 729.28125 398.730469 721.742188 403.800781 C 721.550781 403.941406 721.34375 404.066406 721.148438 404.191406 L 637.558594 455.953125 C 631.917969 459.449219 624.886719 458.367188 621.617188 453.507812 Z M 594.035156 411.742188 C 590.234375 407.28125 591.105469 400.226562 595.992188 395.742188 L 668.429688 329.265625 C 669.144531 328.613281 669.890625 328.03125 670.671875 327.515625 C 677.425781 322.96875 686.199219 323.523438 691.046875 329.203125 C 696.429688 335.539062 694.761719 345.671875 687.367188 351.496094 L 610.152344 412.390625 C 604.949219 416.496094 597.835938 416.207031 594.035156 411.742188 Z M 799.617188 422.988281 L 717.097656 300.210938 C 706.691406 284.738281 685.34375 281.34375 670.664062 292.816406 L 583.789062 360.761719 C 565.453125 375.101562 556.265625 398.210938 559.75 421.234375 L 568.488281 478.875 L 403.480469 589.773438 L 419.03125 599.984375 L 578.058594 493.101562 L 628.140625 522.972656 C 648.132812 534.902344 672.996094 535.117188 693.195312 523.554688 L 788.910156 468.765625 C 805.097656 459.519531 810.019531 438.46875 799.617188 422.988281 Z M 188.335938 766.140625 C 180.175781 771.625 169.125 769.453125 163.644531 761.304688 C 158.15625 753.144531 160.328125 742.089844 168.484375 736.613281 C 176.632812 731.128906 187.6875 733.300781 193.164062 741.449219 C 198.644531 749.605469 196.484375 760.664062 188.335938 766.140625 Z M 389.863281 619.585938 L 374.320312 609.371094 L 341.511719 631.425781 C 335.078125 627.609375 326.761719 627.550781 320.140625 632 L 163.691406 727.265625 C 149.941406 735.636719 145.960938 753.789062 154.945312 767.140625 C 163.917969 780.503906 182.226562 783.675781 195.175781 774.097656 L 342.464844 665.21875 C 347.058594 662.132812 349.953125 657.492188 350.945312 652.457031 C 351.386719 650.230469 351.414062 647.9375 351.082031 645.660156 L 389.863281 619.585938 " fill-opacity="1" fill-rule="nonzero"/></svg>