<svg xmlns="http://www.w3.org/2000/svg" xmlns:xlink="http://www.w3.org/1999/xlink" width="1080" zoomAndPan="magnify" viewBox="0 0 810 809.999993" height="1080" preserveAspectRatio="xMidYMid meet" version="1.0"><defs><clipPath id="c0477ca400"><path d="M 265 53.664062 L 542 53.664062 L 542 446 L 265 446 Z M 265 53.664062 " clip-rule="nonzero"/></clipPath></defs><g clip-path="url(#c0477ca400)"><path fill="#ff1616" d="M 533.289062 371.570312 C 532.480469 373.417969 531.613281 375.238281 530.683594 377.035156 C 523.78125 390.472656 513.066406 403.992188 496.917969 416.484375 C 486.800781 424.3125 475.765625 430.726562 464.105469 435.632812 C 485.835938 415.683594 486.125 387.449219 486.125 387.449219 C 486.125 387.449219 481.480469 409.550781 468.875 409.382812 C 456.257812 409.214844 463.707031 398.042969 463.707031 398.042969 C 503.398438 353.648438 467.554688 323.617188 466.816406 323.011719 C 480.296875 345.324219 470.414062 371.859375 451.207031 367.378906 C 431.988281 362.894531 439.902344 329.148438 440.378906 296.824219 C 440.851562 264.507812 418.558594 253.800781 418.558594 253.800781 C 426.203125 266.847656 424.769531 281.191406 422.007812 291.320312 C 419.890625 299.0625 409.773438 301.191406 404.957031 294.78125 C 394.996094 281.527344 396.308594 262.144531 404.632812 243.296875 C 415.171875 219.453125 407.066406 202.863281 406.695312 202.144531 C 406.820312 202.882812 409.132812 218.519531 383.46875 236.867188 C 357.179688 255.664062 358.597656 287.039062 365.40625 301.886719 C 372.214844 316.726562 369.167969 352.847656 342.472656 340.855469 C 316.257812 329.074219 332.691406 289.449219 333.28125 288.050781 C 279.679688 391.007812 322.011719 430.460938 356.933594 445.382812 C 318.46875 437.855469 236.410156 404.011719 275.539062 251.980469 C 275.539062 251.980469 276.363281 300.664062 303.59375 306.441406 C 330.824219 312.214844 276.644531 176.90625 335.492188 152.140625 C 335.066406 152.933594 313.207031 193.546875 340.453125 209.34375 C 367.953125 225.300781 334.957031 103.199219 411.398438 53.6875 C 410.664062 54.769531 378.144531 102.394531 403.164062 130.679688 C 428.464844 159.289062 435.066406 169.734375 448.269531 204.945312 C 461.472656 240.15625 468.621094 204.394531 464.769531 182.390625 C 460.988281 160.695312 479.09375 139.007812 479.617188 138.402344 C 479.269531 139.542969 466.886719 181.246094 499.980469 217.597656 C 507.371094 225.714844 511.6875 235.804688 511.316406 246.863281 C 510.96875 257.128906 507.25 266.949219 503.40625 276.324219 C 499.273438 286.414062 494.445312 296.4375 492.675781 307.285156 C 491.355469 315.382812 491.152344 327.253906 498.472656 332.765625 C 504.300781 337.140625 511.90625 335.617188 517.558594 331.742188 C 524.488281 327.003906 529.171875 319.433594 531.5625 311.386719 C 533.953125 303.328125 534.199219 294.78125 533.574219 286.394531 C 544.539062 313.320312 545.09375 344.832031 533.289062 371.570312 " fill-opacity="1" fill-rule="nonzero"/></g><path fill="#ff1616" d="M 634.726562 733.8125 C 631.3125 739.007812 625.628906 741.832031 619.84375 741.832031 C 616.492188 741.832031 613.097656 740.882812 610.085938 738.90625 C 601.882812 733.507812 599.605469 722.480469 604.996094 714.269531 C 608.421875 709.074219 614.101562 706.25 619.878906 706.25 C 623.234375 706.25 626.621094 707.195312 629.632812 709.171875 C 637.84375 714.5625 640.117188 725.59375 634.726562 733.8125 Z M 634.320312 699.785156 L 476.902344 606.132812 C 473.515625 603.902344 469.703125 602.835938 465.929688 602.835938 C 464.558594 602.835938 463.195312 602.976562 461.867188 603.257812 C 459.632812 603.722656 457.5 604.570312 455.539062 605.769531 L 412.164062 577.261719 L 396.617188 567.046875 L 290.933594 497.582031 C 285.246094 493.84375 280.429688 488.925781 276.820312 483.148438 L 269.96875 472.199219 C 263.097656 461.195312 259.90625 448.40625 260.089844 435.453125 C 260.25 423.773438 254.625 412.265625 244.15625 405.382812 L 45.265625 297.054688 L 62.695312 319.0625 L 183.195312 398.269531 C 198.386719 408.242188 202.933594 429.019531 192.660156 444.015625 C 186.398438 453.144531 176.261719 458.089844 165.914062 458.089844 C 159.804688 458.089844 153.628906 456.367188 148.140625 452.765625 L 27.101562 373.207031 L -0.0078125 365.9375 L 178.328125 505.546875 C 184.304688 509.46875 191.039062 511.359375 197.703125 511.359375 C 202.789062 511.359375 207.828125 510.265625 212.453125 508.148438 C 221.4375 504.050781 231.121094 501.792969 240.886719 501.792969 C 244.011719 501.792969 247.136719 502.015625 250.261719 502.496094 L 262.058594 504.273438 C 268.789062 505.308594 275.210938 507.777344 280.910156 511.523438 L 381.179688 577.421875 L 396.722656 587.636719 L 446.113281 620.101562 C 445.085938 627.515625 448.257812 635.195312 454.925781 639.582031 L 603.332031 746.929688 C 608.34375 750.566406 614.128906 752.300781 619.851562 752.300781 C 629.03125 752.300781 638.046875 747.851562 643.484375 739.570312 C 652.332031 726.121094 648.160156 708.003906 634.320312 699.785156 " fill-opacity="1" fill-rule="nonzero"/><path fill="#ff1616" d="M 756.796875 428.328125 C 756.023438 428.851562 755.199219 429.320312 754.335938 429.734375 L 665.421875 471.703125 C 659.433594 474.53125 652.554688 472.667969 649.863281 467.464844 C 647.164062 462.261719 649.582031 455.578125 655.359375 452.308594 L 740.886719 403.800781 C 749.078125 399.164062 759.101562 401.4375 762.933594 408.816406 C 766.367188 415.449219 763.558594 423.785156 756.796875 428.328125 Z M 621.617188 426.171875 C 618.347656 421.296875 620 414.382812 625.363281 410.472656 L 704.859375 352.625 C 712.472656 347.089844 722.6875 348.222656 727.335938 355.113281 C 731.847656 361.839844 729.28125 371.394531 721.742188 376.460938 C 721.550781 376.601562 721.34375 376.730469 721.148438 376.855469 L 637.558594 428.617188 C 631.917969 432.113281 624.886719 431.027344 621.617188 426.171875 Z M 594.035156 384.40625 C 590.234375 379.941406 591.105469 372.890625 595.992188 368.40625 L 668.429688 301.929688 C 669.144531 301.273438 669.890625 300.691406 670.671875 300.179688 C 677.425781 295.632812 686.199219 296.1875 691.046875 301.863281 C 696.429688 308.199219 694.761719 318.335938 687.367188 324.15625 L 610.152344 385.050781 C 604.949219 389.15625 597.835938 388.871094 594.035156 384.40625 Z M 799.617188 395.652344 L 717.097656 272.875 C 706.691406 257.398438 685.34375 254.003906 670.664062 265.480469 L 583.789062 333.421875 C 565.453125 347.765625 556.265625 370.871094 559.75 393.894531 L 568.488281 451.535156 L 403.480469 562.433594 L 419.03125 572.648438 L 578.058594 465.761719 L 628.140625 495.636719 C 648.132812 507.566406 672.996094 507.78125 693.195312 496.21875 L 788.910156 441.425781 C 805.097656 432.179688 810.019531 411.132812 799.617188 395.652344 Z M 188.335938 738.804688 C 180.175781 744.289062 169.125 742.113281 163.644531 733.96875 C 158.15625 725.804688 160.328125 714.753906 168.484375 709.277344 C 176.632812 703.792969 187.6875 705.964844 193.164062 714.113281 C 198.644531 722.269531 196.484375 733.328125 188.335938 738.804688 Z M 389.863281 592.25 L 374.320312 582.035156 L 341.511719 604.085938 C 335.078125 600.269531 326.761719 600.210938 320.140625 604.664062 L 163.691406 699.925781 C 149.941406 708.300781 145.960938 726.453125 154.945312 739.804688 C 163.917969 753.164062 182.226562 756.335938 195.175781 746.761719 L 342.464844 637.882812 C 347.058594 634.792969 349.953125 630.152344 350.945312 625.121094 C 351.386719 622.894531 351.414062 620.601562 351.082031 618.324219 L 389.863281 592.25 " fill-opacity="1" fill-rule="nonzero"/></svg>